<?xml version="1.0" standalone="no"?>
<!DOCTYPE svg PUBLIC "-//W3C//DTD SVG 20010904//EN"
 "http://www.w3.org/TR/2001/REC-SVG-20010904/DTD/svg10.dtd">
<svg version="1.0" xmlns="http://www.w3.org/2000/svg"
 width="175.000000pt" height="175.000000pt" viewBox="0 0 175.000000 175.000000"
 preserveAspectRatio="xMidYMid meet">

<g transform="translate(0.000000,175.000000) scale(0.100000,-0.100000)"
fill="#000000" stroke="none">
<path d="M805 1678 c-341 -32 -631 -293 -701 -631 -41 -194 -5 -411 97 -585
44 -73 198 -227 271 -271 259 -151 577 -151 836 0 73 44 227 198 271 271 151
259 151 577 0 836 -44 73 -198 227 -271 271 -155 90 -319 126 -503 109z m245
-133 c184 -44 365 -187 448 -355 53 -108 72 -190 72 -310 0 -120 -19 -202 -72
-310 -59 -120 -178 -239 -298 -298 -108 -53 -190 -72 -310 -72 -120 0 -202 19
-310 72 -120 59 -239 178 -298 298 -23 47 -48 114 -57 150 -19 83 -19 237 0
320 44 184 186 365 355 448 47 23 112 48 145 56 80 19 244 19 325 1z"/>
<path d="M408 1214 l32 -25 0 -267 0 -267 -32 -27 -33 -27 109 -1 110 0 -27
28 c-25 26 -27 35 -27 108 l0 81 48 56 c26 31 49 56 52 56 3 1 37 -62 75 -139
l70 -140 -30 -25 -30 -24 122 -1 c113 0 151 8 122 26 -8 5 -9 3 -4 -6 5 -8 3
-11 -6 -8 -8 3 -14 10 -14 15 0 6 -4 15 -9 20 -5 5 -6 3 -2 -4 10 -19 -9 -16
-32 4 -23 20 -192 341 -192 364 0 25 156 185 202 208 l43 21 -125 0 c-106 0
-121 -2 -101 -13 64 -33 54 -69 -57 -199 l-87 -103 -6 65 -6 65 -1 -76 c-1
-51 -7 -80 -16 -88 -11 -9 -15 13 -21 136 l-7 146 39 33 38 33 -115 1 -115 0
33 -26z"/>
<path d="M1363 1157 c-72 -53 -244 -274 -288 -370 -28 -61 -43 -173 -25 -197
9 -13 17 -7 51 33 23 26 45 47 50 47 5 0 16 -15 25 -32 41 -82 82 -96 145 -53
38 27 99 97 99 114 0 5 -17 -5 -37 -24 -54 -50 -86 -59 -118 -34 -14 11 -25
23 -25 27 0 4 23 23 51 42 93 63 135 132 109 179 -24 45 -73 18 -211 -116 -87
-85 -99 -93 -99 -71 0 18 34 67 111 159 145 176 229 287 229 305 0 21 -32 17
-67 -9z m-23 -338 c0 -11 -23 -45 -53 -76 -49 -51 -54 -54 -80 -44 l-28 11 23
30 c27 37 106 100 125 100 7 0 13 -9 13 -21z"/>
<path d="M784 1058 l-19 -23 23 19 c21 18 27 26 19 26 -2 0 -12 -10 -23 -22z"/>
<path d="M620 867 l-23 -32 29 27 c15 15 26 30 23 33 -3 2 -16 -10 -29 -28z"/>
<path d="M579 813 c-13 -16 -12 -17 4 -4 9 7 17 15 17 17 0 8 -8 3 -21 -13z"/>
<path d="M604 608 l28 -37 -119 -4 -118 -3 128 -2 128 -2 -20 28 c-11 16 -28
35 -38 43 -9 8 -5 -3 11 -23z"/>
<path d="M1004 591 l19 -20 -139 -4 -139 -3 158 -2 c86 -1 157 0 157 2 0 2
-17 14 -37 26 -37 22 -37 22 -19 1z"/>
</g>
</svg>
